Genre:Horror 
Language:English
IMDb:http://www.imdb.com/title/tt0887143/
Source:1080p.BluRay.x264-THUGLiNE
Subtitles:Romana


Format : MPEG-4
Format profile : Base Media
Codec ID : isom
File size : 2.20 GiB
Duration : 1h 32mn
Overall bit rate : 3 392 Kbps


Video
ID : 1
Format : AVC
Format/Info : Advanced Video Codec
Format profile : High@L4.1
Format settings, CABAC : Yes
Format settings, ReFrames : 3 frames
Codec ID : avc1
Codec ID/Info : Advanced Video Coding
Duration : 1h 32mn
Bit rate mode : Variable
Bit rate : 3 000 Kbps
Maximum bit rate : 20.4 Mbps
Width : 1 280 pixels
Height : 720 pixels
Display aspect ratio : 16:9
Frame rate mode : Constant
Frame rate : 23.976 fps
Color space : YUV
Chroma subsampling : 4:2:0
Bit depth : 8 bits
Scan type : Progressive
Bits/(Pixel*Frame) : 0.136
Stream size : 1.91 GiB (87%)
Writing library : x264


Audio
ID : 2
Format : AAC
Format/Info : Advanced Audio Codec
Format version : Version 4
Format profile : LC
Format settings, SBR : No
Codec ID : 40
Duration : 1h 32mn
Bit rate mode : Variable
Bit rate : 444 Kbps
Maximum bit rate : 556 Kbps
Channel(s) : 6 channels
Channel positions : Front: L C R, Side: L R, LFE
Sampling rate : 48.0 KHz
Stream size : 295 MiB (13%)


Plot:
Roving clans of shape-shifting human/hyena creatures prowl and hunt for human prey. They are hunted by one man seeking revenge for the death of his loved ones.

Screenshots:
 
http://www.pix2links.com/images/04707744182955426442.png 
http://www.pix2links.com/images/28827250933761009948.png 
http://www.pix2links.com/images/79884810306780335689.png 
http://www.pix2links.com/images/03950001915488960910.png 
http://www.pix2links.com/images/68949480764769601146.png 
http://www.pix2links.com/images/77129144450448630307.png